<svg xmlns="http://www.w3.org/2000/svg" width="64" height="64" id="apartment">
  <path d="M5.5 4a.5.5 0 0 0-.5.5V56H3.5a.5.5 0 0 0-.5.5v3a.5.5 0 0 0 .5.5h25a.5.5 0 0 0 .5-.5v-3a.5.5 0 0 0-.5-.5H27V23.771l10 5.768V56h-1.5a.5.5 0 0 0-.5.5v3a.5.5 0 0 0 .5.5h25a.5.5 0 0 0 .5-.5v-3a.5.5 0 0 0-.5-.5H59V4.5a.5.5 0 0 0-.5-.5h-21a.5.5 0 0 0-.5.5v17.793l-10-5.768V4.5a.5.5 0 0 0-.5-.5h-21zM6 5h20v11.813a.5.5 0 0 0 .25.433l11 6.344a.5.5 0 0 0 .75-.434V5h20v51h-9V39.5a.5.5 0 0 0-.5-.5h-8a.5.5 0 0 0-.5.5V56h-2V29.25a.5.5 0 0 0-.25-.432l-11-6.343a.5.5 0 0 0-.75.431V56h-2V39.5a.5.5 0 0 0-.5-.5h-8a.5.5 0 0 0-.5.5V56H6V5zm2.5 3a.5.5 0 0 0-.5.5v7a.5.5 0 0 0 .5.5h6a.5.5 0 0 0 .5-.5v-7a.5.5 0 0 0-.5-.5h-6zm9 0a.5.5 0 0 0-.5.5v7a.5.5 0 0 0 .5.5h6a.5.5 0 0 0 .5-.5v-7a.5.5 0 0 0-.5-.5h-6zm23 0a.5.5 0 0 0-.5.5v7a.5.5 0 0 0 .5.5h6a.5.5 0 0 0 .5-.5v-7a.5.5 0 0 0-.5-.5h-6zm9 0a.5.5 0 0 0-.5.5v7a.5.5 0 0 0 .5.5h6a.5.5 0 0 0 .5-.5v-7a.5.5 0 0 0-.5-.5h-6zM9 9h5v6H9V9zm9 0h5v6h-5V9zm23 0h5v6h-5V9zm9 0h5v6h-5V9zM8.5 18a.5.5 0 0 0-.5.5v7a.5.5 0 0 0 .5.5h6a.5.5 0 0 0 .5-.5v-7a.5.5 0 0 0-.5-.5h-6zm9 0a.5.5 0 0 0-.5.5v7a.5.5 0 0 0 .5.5h6a.5.5 0 0 0 .5-.5v-7a.5.5 0 0 0-.5-.5h-6zm23 0a.5.5 0 0 0-.5.5v7a.5.5 0 0 0 .5.5h6a.5.5 0 0 0 .5-.5v-7a.5.5 0 0 0-.5-.5h-6zm9 0a.5.5 0 0 0-.5.5v7a.5.5 0 0 0 .5.5h6a.5.5 0 0 0 .5-.5v-7a.5.5 0 0 0-.5-.5h-6zM9 19h5v6H9v-6zm9 0h5v6h-5v-6zm23 0h5v6h-5v-6zm9 0h5v6h-5v-6zM8.5 28a.5.5 0 0 0-.5.5v7a.5.5 0 0 0 .5.5h6a.5.5 0 0 0 .5-.5v-7a.5.5 0 0 0-.5-.5h-6zm9 0a.5.5 0 0 0-.5.5v7a.5.5 0 0 0 .5.5h6a.5.5 0 0 0 .5-.5v-7a.5.5 0 0 0-.5-.5h-6zm23 0a.5.5 0 0 0-.5.5v7a.5.5 0 0 0 .5.5h6a.5.5 0 0 0 .5-.5v-7a.5.5 0 0 0-.5-.5h-6zm9 0a.5.5 0 0 0-.5.5v7a.5.5 0 0 0 .5.5h6a.5.5 0 0 0 .5-.5v-7a.5.5 0 0 0-.5-.5h-6zM9 29h5v6H9v-6zm9 0h5v6h-5v-6zm23 0h5v6h-5v-6zm9 0h5v6h-5v-6zM8.5 38a.5.5 0 0 0-.5.5v7a.5.5 0 0 0 .5.5h4a.5.5 0 0 0 .5-.5v-7a.5.5 0 0 0-.5-.5h-4zm43 0a.5.5 0 0 0-.5.5v7a.5.5 0 0 0 .5.5h4a.5.5 0 0 0 .5-.5v-7a.5.5 0 0 0-.5-.5h-4zM9 39h3v6H9v-6zm43 0h3v6h-3v-6zm-36 1h7v16h-7V40zm25 0h7v16h-7V40zm-19.963 7.834a.5.5 0 0 0-.492.506v2.16a.5.5 0 1 0 1 0v-2.16a.5.5 0 0 0-.508-.506zm22 0a.5.5 0 0 0-.492.506v2.16a.5.5 0 1 0 1 0v-2.16a.5.5 0 0 0-.508-.506zM4 57h24v2H4v-2zm32 0h24v2H36v-2z" color="#000" font-family="sans-serif" font-weight="400" overflow="visible" style="line-height:normal;text-indent:0;text-align:start;text-decoration-line:none;text-decoration-style:solid;text-decoration-color:#000;text-transform:none;block-progression:tb;white-space:normal;isolation:auto;mix-blend-mode:normal;solid-color:#000;solid-opacity:1"></path>
</svg>
